M48
INCH
T1C0.0157
T2C0.0295
T3C0.0300
T4C0.0315
T5C0.0354
T6C0.0374
T7C0.0394
T8C0.0433
T9C0.0472
T10C0.0598
%
G90
G05
T1
X0.0472Y-0.2835
X0.0472Y-0.6811
X0.0512Y-1.1102
X0.0512Y-1.5591
X0.1969Y-0.8228
X0.2047Y-0.9567
X0.2165Y-0.0433
X0.2441Y-1.9173
X0.2598Y-0.4094
X0.2717Y-0.5984
X0.2835Y-1.2165
X0.3071Y-1.378
X0.3189Y-1.7323
X0.3937Y-0.4094
X0.4685Y-1.4803
X0.4685Y-1.9173
X0.4803Y-1.626
X0.563Y-0.0709
X0.5669Y-1.2205
X0.5669Y-1.4213
X0.5827Y-0.5787
X0.6299Y-0.8898
X0.6693Y-1.9213
X0.7244Y-0.4094
X0.748Y-0.2362
X0.7795Y-1.315
X0.7953Y-1.5551
X0.7953Y-1.6929
X0.8031Y-0.7087
X0.8031Y-0.7874
X0.8031Y-0.8661
X0.8031Y-0.9449
X0.878Y-1.5787
X0.878Y-1.6575
X0.878Y-1.7362
X0.878Y-1.7953
X0.8819Y-0.7087
X0.8819Y-0.7874
X0.8819Y-0.8661
X0.8819Y-0.9449
X0.8819Y-1.9055
X0.9055Y-0.5669
X0.9213Y-1.1181
X0.9252Y-0.0669
X0.937Y-0.8268
X0.9567Y-1.5787
X0.9567Y-1.6575
X0.9567Y-1.7362
X0.9567Y-1.7953
X0.9606Y-1.9055
X1.0354Y-1.5787
X1.0354Y-1.6575
X1.0354Y-1.7362
X1.0354Y-1.7953
X1.0394Y-1.9055
X1.0748Y-1.063
X1.0787Y-0.9528
X1.1142Y-1.5787
X1.1142Y-1.6575
X1.1142Y-1.7362
X1.1142Y-1.7953
X1.1181Y-1.9055
X1.1929Y-0.8268
X1.1929Y-1.5787
X1.1929Y-1.6575
X1.1929Y-1.7362
X1.1929Y-1.7953
X1.1969Y-1.9055
X1.2047Y-1.2244
X1.2047Y-1.4134
X1.2087Y-0.5984
X1.2441Y-1.0984
X1.2598Y-1.8031
X1.2756Y-1.5787
X1.2756Y-1.6575
X1.2756Y-1.9055
X1.3228Y-0.6772
X1.3268Y-1.1457
X1.3268Y-1.2362
X1.3307Y-1.3976
X1.3543Y-1.5787
X1.3543Y-1.9055
X1.374Y-0.4724
X1.374Y-0.5984
X1.4055Y-0.0669
X1.4094Y-0.7638
X1.4094Y-0.9449
X1.4331Y-1.5787
X1.4331Y-1.6575
X1.4331Y-1.9055
X1.4449Y-1.7992
X1.4882Y-0.3189
X1.5551Y-1.4803
X1.5551Y-1.6496
X1.5591Y-1.2283
X1.563Y-0.5079
X1.563Y-0.5866
X1.563Y-0.6654
X1.563Y-0.7441
X1.563Y-0.8228
X1.563Y-0.9016
X1.563Y-0.9803
X1.563Y-1.0591
X1.563Y-1.9134
X1.6417Y-0.5079
X1.6417Y-0.5866
X1.6417Y-0.6654
X1.6417Y-0.7441
X1.6417Y-0.8228
X1.6417Y-0.9016
X1.6417Y-1.0591
X1.7205Y-0.5079
X1.7205Y-0.5866
X1.7205Y-0.6654
X1.7205Y-0.7441
X1.7205Y-0.8228
X1.7992Y-0.5079
X1.7992Y-0.5866
X1.7992Y-0.6654
X1.7992Y-0.7441
X1.7992Y-0.8228
X1.7992Y-0.9016
X1.7992Y-1.0591
X1.8031Y-1.6535
X1.815Y-1.2283
X1.878Y-0.0669
X1.878Y-0.5079
X1.878Y-0.5866
X1.878Y-0.6654
X1.878Y-0.7441
X1.878Y-0.8228
X1.878Y-0.9016
X1.878Y-0.9803
X1.878Y-1.0591
X1.9252Y-0.3228
X1.9685Y-1.3976
X2.0354Y-1.4921
X2.0394Y-1.6535
X2.0394Y-1.9016
X2.0433Y-1.0
X2.0433Y-1.1693
X2.0433Y-1.3307
X2.0472Y-0.7795
X2.0512Y-0.5748
X2.1299Y-0.3858
X2.2008Y-0.7835
X2.2638Y-1.3189
X2.2638Y-1.6575
X2.2939Y-0.9002
X2.3241Y-0.5748
X2.4016Y-0.0709
X2.4016Y-0.4134
X2.4094Y-0.7205
X2.4843Y-1.0
X2.4843Y-1.3228
X2.4843Y-1.4803
X2.4882Y-1.1535
X2.4882Y-1.6535
X2.4921Y-1.9055
X2.6693Y-0.7244
X2.6772Y-0.0748
X2.6772Y-1.0315
X2.6772Y-1.3189
X2.6969Y-0.4134
X2.6969Y-1.622
X2.7717Y-0.5008
X2.8898Y-0.7244
X2.9449Y-0.2598
X2.9488Y-0.0787
X2.9567Y-0.4213
X2.9685Y-1.4331
X2.9685Y-1.622
X2.9724Y-1.878
X3.0Y-1.0787
X3.0315Y-0.5866
X3.0354Y-0.6929
X3.1614Y-0.3228
X3.2205Y-1.0787
X3.248Y-1.622
T2
X1.1441Y-0.7244
X1.1941Y-0.7244
X1.2441Y-0.7244
T3
X0.1181Y-1.6102
X0.2181Y-1.6102
X0.3181Y-1.6102
X1.1063Y-0.1732
X1.1063Y-0.3701
X1.2638Y-0.1732
X1.2638Y-0.3701
T4
X0.1177Y-0.5709
X0.1181Y-1.2874
X0.1964Y-0.5709
X0.1969Y-1.2874
X0.3346Y-0.115
X0.3346Y-0.515
X0.3919Y-1.2874
X0.4449Y-0.1457
X0.4707Y-1.2874
X0.4949Y-0.3238
X0.4949Y-0.4882
X0.5748Y-1.5394
X0.5748Y-1.6378
X0.5748Y-1.7402
X0.5748Y-1.8386
X0.7146Y-1.0984
X0.7165Y-0.674
X0.7165Y-0.774
X0.7165Y-0.874
X0.7165Y-0.974
X0.7819Y-1.2165
X0.7819Y-1.4165
X0.813Y-1.0984
X0.8819Y-1.3165
X0.8949Y-0.3238
X0.8949Y-0.4882
X0.9449Y-0.1457
X1.0165Y-0.674
X1.0165Y-0.774
X1.0165Y-0.874
X1.0165Y-0.974
X1.0315Y-1.2354
X1.0315Y-1.3976
X1.1413Y-0.5315
X1.1449Y-0.937
X1.2433Y-0.937
X1.4094Y-0.6575
X1.4094Y-1.0575
X1.4315Y-1.2354
X1.4315Y-1.3976
X1.4413Y-0.5315
T5
X0.1575Y-0.2795
X0.1575Y-0.3795
T6
X2.7726Y-1.2362
X2.7726Y-1.3346
X2.7726Y-1.4331
X3.1939Y-1.2362
X3.1939Y-1.3346
X3.1939Y-1.4331
T7
X0.439Y-0.8256
X1.7618Y-1.497
X1.7618Y-1.8553
X1.8602Y-1.497
X1.8602Y-1.8553
X2.1273Y-0.252
X2.2205Y-1.1772
X2.2205Y-1.497
X2.2205Y-1.8543
X2.3189Y-1.1772
X2.3189Y-1.497
X2.3189Y-1.8543
X2.3241Y-0.252
T8
X0.6969Y-1.6402
X0.6969Y-1.7402
X0.6969Y-1.8402
X1.6205Y-0.3256
X1.7205Y-0.3256
X1.8205Y-0.3256
T9
X1.4508Y-0.1772
X1.9508Y-0.1772
T10
X0.439Y-0.7272
X0.439Y-0.7272
X0.439Y-0.9272
X2.6543Y-1.8268
X2.8543Y-1.8268
X3.1614Y-0.5008
X3.1614Y-0.7008
X3.1614Y-0.9008
T7
G00X0.3051Y-0.8839
M15
G01X0.3051Y-0.9705
M16
G05
G00X0.4823Y-1.1161
M15
G01X0.3957Y-1.1161
M16
G05
G00X0.5531Y-0.876
M15
G01X0.5531Y-0.9783
M16
G05
T0
M30
