%TF.GenerationSoftware,KiCad,Pcbnew,(7.0.0)*%
%TF.CreationDate,2023-03-22T21:09:57+09:00*%
%TF.ProjectId,NixieTubePowerSupply,4e697869-6554-4756-9265-506f77657253,rev?*%
%TF.SameCoordinates,Original*%
%TF.FileFunction,Legend,Bot*%
%TF.FilePolarity,Positive*%
%FSLAX46Y46*%
G04 Gerber Fmt 4.6, Leading zero omitted, Abs format (unit mm)*
G04 Created by KiCad (PCBNEW (7.0.0)) date 2023-03-22 21:09:57*
%MOMM*%
%LPD*%
G01*
G04 APERTURE LIST*
G04 Aperture macros list*
%AMRoundRect*
0 Rectangle with rounded corners*
0 $1 Rounding radius*
0 $2 $3 $4 $5 $6 $7 $8 $9 X,Y pos of 4 corners*
0 Add a 4 corners polygon primitive as box body*
4,1,4,$2,$3,$4,$5,$6,$7,$8,$9,$2,$3,0*
0 Add four circle primitives for the rounded corners*
1,1,$1+$1,$2,$3*
1,1,$1+$1,$4,$5*
1,1,$1+$1,$6,$7*
1,1,$1+$1,$8,$9*
0 Add four rect primitives between the rounded corners*
20,1,$1+$1,$2,$3,$4,$5,0*
20,1,$1+$1,$4,$5,$6,$7,0*
20,1,$1+$1,$6,$7,$8,$9,0*
20,1,$1+$1,$8,$9,$2,$3,0*%
G04 Aperture macros list end*
%ADD10C,0.150000*%
%ADD11RoundRect,0.250000X0.600000X0.750000X-0.600000X0.750000X-0.600000X-0.750000X0.600000X-0.750000X0*%
%ADD12O,1.700000X2.000000*%
%ADD13C,1.600000*%
%ADD14O,1.600000X1.600000*%
%ADD15R,2.000000X2.000000*%
%ADD16C,2.000000*%
%ADD17C,1.524000*%
%ADD18O,3.500000X3.500000*%
%ADD19R,1.905000X2.000000*%
%ADD20O,1.905000X2.000000*%
%ADD21R,1.600000X1.600000*%
%ADD22RoundRect,0.250000X-0.725000X0.600000X-0.725000X-0.600000X0.725000X-0.600000X0.725000X0.600000X0*%
%ADD23O,1.950000X1.700000*%
%ADD24C,3.200000*%
%ADD25R,2.000000X4.600000*%
%ADD26O,2.000000X4.200000*%
%ADD27O,4.200000X2.000000*%
%ADD28R,3.000000X3.000000*%
%ADD29C,3.000000*%
%ADD30R,1.800000X1.800000*%
%ADD31C,1.800000*%
%ADD32R,2.000000X1.905000*%
%ADD33O,2.000000X1.905000*%
%ADD34C,1.440000*%
%ADD35R,2.800000X2.800000*%
%ADD36O,2.000000X1.700000*%
%ADD37R,2.400000X2.400000*%
%ADD38O,2.400000X2.400000*%
%ADD39R,1.524000X1.524000*%
%ADD40R,1.050000X1.500000*%
%ADD41O,1.050000X1.500000*%
G04 APERTURE END LIST*
D10*
X66723809Y-1517619D02*
X66723809Y-803333D01*
X66723809Y-803333D02*
X66676190Y-660476D01*
X66676190Y-660476D02*
X66580952Y-565238D01*
X66580952Y-565238D02*
X66438095Y-517619D01*
X66438095Y-517619D02*
X66342857Y-517619D01*
X67676190Y-517619D02*
X67200000Y-517619D01*
X67200000Y-517619D02*
X67200000Y-1517619D01*
X68580952Y-612857D02*
X68533333Y-565238D01*
X68533333Y-565238D02*
X68390476Y-517619D01*
X68390476Y-517619D02*
X68295238Y-517619D01*
X68295238Y-517619D02*
X68152381Y-565238D01*
X68152381Y-565238D02*
X68057143Y-660476D01*
X68057143Y-660476D02*
X68009524Y-755714D01*
X68009524Y-755714D02*
X67961905Y-946190D01*
X67961905Y-946190D02*
X67961905Y-1089047D01*
X67961905Y-1089047D02*
X68009524Y-1279523D01*
X68009524Y-1279523D02*
X68057143Y-1374761D01*
X68057143Y-1374761D02*
X68152381Y-1470000D01*
X68152381Y-1470000D02*
X68295238Y-1517619D01*
X68295238Y-1517619D02*
X68390476Y-1517619D01*
X68390476Y-1517619D02*
X68533333Y-1470000D01*
X68533333Y-1470000D02*
X68580952Y-1422380D01*
X69295238Y-1517619D02*
X69295238Y-803333D01*
X69295238Y-803333D02*
X69247619Y-660476D01*
X69247619Y-660476D02*
X69152381Y-565238D01*
X69152381Y-565238D02*
X69009524Y-517619D01*
X69009524Y-517619D02*
X68914286Y-517619D01*
X70247619Y-517619D02*
X69771429Y-517619D01*
X69771429Y-517619D02*
X69771429Y-1517619D01*
X71152381Y-612857D02*
X71104762Y-565238D01*
X71104762Y-565238D02*
X70961905Y-517619D01*
X70961905Y-517619D02*
X70866667Y-517619D01*
X70866667Y-517619D02*
X70723810Y-565238D01*
X70723810Y-565238D02*
X70628572Y-660476D01*
X70628572Y-660476D02*
X70580953Y-755714D01*
X70580953Y-755714D02*
X70533334Y-946190D01*
X70533334Y-946190D02*
X70533334Y-1089047D01*
X70533334Y-1089047D02*
X70580953Y-1279523D01*
X70580953Y-1279523D02*
X70628572Y-1374761D01*
X70628572Y-1374761D02*
X70723810Y-1470000D01*
X70723810Y-1470000D02*
X70866667Y-1517619D01*
X70866667Y-1517619D02*
X70961905Y-1517619D01*
X70961905Y-1517619D02*
X71104762Y-1470000D01*
X71104762Y-1470000D02*
X71152381Y-1422380D01*
X71866667Y-1517619D02*
X71866667Y-803333D01*
X71866667Y-803333D02*
X71819048Y-660476D01*
X71819048Y-660476D02*
X71723810Y-565238D01*
X71723810Y-565238D02*
X71580953Y-517619D01*
X71580953Y-517619D02*
X71485715Y-517619D01*
X72819048Y-517619D02*
X72342858Y-517619D01*
X72342858Y-517619D02*
X72342858Y-1517619D01*
X73723810Y-612857D02*
X73676191Y-565238D01*
X73676191Y-565238D02*
X73533334Y-517619D01*
X73533334Y-517619D02*
X73438096Y-517619D01*
X73438096Y-517619D02*
X73295239Y-565238D01*
X73295239Y-565238D02*
X73200001Y-660476D01*
X73200001Y-660476D02*
X73152382Y-755714D01*
X73152382Y-755714D02*
X73104763Y-946190D01*
X73104763Y-946190D02*
X73104763Y-1089047D01*
X73104763Y-1089047D02*
X73152382Y-1279523D01*
X73152382Y-1279523D02*
X73200001Y-1374761D01*
X73200001Y-1374761D02*
X73295239Y-1470000D01*
X73295239Y-1470000D02*
X73438096Y-1517619D01*
X73438096Y-1517619D02*
X73533334Y-1517619D01*
X73533334Y-1517619D02*
X73676191Y-1470000D01*
X73676191Y-1470000D02*
X73723810Y-1422380D01*
X74438096Y-1517619D02*
X74438096Y-803333D01*
X74438096Y-803333D02*
X74390477Y-660476D01*
X74390477Y-660476D02*
X74295239Y-565238D01*
X74295239Y-565238D02*
X74152382Y-517619D01*
X74152382Y-517619D02*
X74057144Y-517619D01*
X75390477Y-517619D02*
X74914287Y-517619D01*
X74914287Y-517619D02*
X74914287Y-1517619D01*
X76295239Y-612857D02*
X76247620Y-565238D01*
X76247620Y-565238D02*
X76104763Y-517619D01*
X76104763Y-517619D02*
X76009525Y-517619D01*
X76009525Y-517619D02*
X75866668Y-565238D01*
X75866668Y-565238D02*
X75771430Y-660476D01*
X75771430Y-660476D02*
X75723811Y-755714D01*
X75723811Y-755714D02*
X75676192Y-946190D01*
X75676192Y-946190D02*
X75676192Y-1089047D01*
X75676192Y-1089047D02*
X75723811Y-1279523D01*
X75723811Y-1279523D02*
X75771430Y-1374761D01*
X75771430Y-1374761D02*
X75866668Y-1470000D01*
X75866668Y-1470000D02*
X76009525Y-1517619D01*
X76009525Y-1517619D02*
X76104763Y-1517619D01*
X76104763Y-1517619D02*
X76247620Y-1470000D01*
X76247620Y-1470000D02*
X76295239Y-1422380D01*
%LPC*%
D11*
%TO.C,J11*%
X58900000Y-29900000D03*
D12*
X56399999Y-29899999D03*
%TD*%
D13*
%TO.C,R3*%
X12570000Y-12400000D03*
D14*
X22729999Y-12399999D03*
%TD*%
D15*
%TO.C,C8*%
X54032322Y-6399999D03*
D16*
X59032323Y-6400000D03*
%TD*%
D13*
%TO.C,R4*%
X35800000Y-16700000D03*
D14*
X35799999Y-26859999D03*
%TD*%
D11*
%TO.C,J8*%
X58900000Y-47100000D03*
D12*
X56399999Y-47099999D03*
%TD*%
D17*
%TO.C,L1*%
X28100000Y-4400000D03*
X28100000Y-9400000D03*
X32100000Y-9400000D03*
X32100000Y-4400000D03*
%TD*%
D18*
%TO.C,Q2*%
X43699999Y-24929999D03*
D19*
X46239999Y-8269999D03*
D20*
X43699999Y-8269999D03*
X41159999Y-8269999D03*
%TD*%
D21*
%TO.C,U2*%
X18199999Y-17119999D03*
D14*
X18199999Y-19659999D03*
X18199999Y-22199999D03*
X18199999Y-24739999D03*
X25819999Y-24739999D03*
X25819999Y-22199999D03*
X25819999Y-19659999D03*
X25819999Y-17119999D03*
%TD*%
D13*
%TO.C,C6*%
X14600000Y-46700000D03*
X14600000Y-44200000D03*
%TD*%
D21*
%TO.C,C2*%
X2989775Y-14499999D03*
D13*
X4989776Y-14500000D03*
%TD*%
%TO.C,C3*%
X18150000Y-27900000D03*
X20650000Y-27900000D03*
%TD*%
D22*
%TO.C,J5*%
X81125000Y-31400000D03*
D23*
X81124999Y-33899999D03*
X81124999Y-36399999D03*
%TD*%
D13*
%TO.C,C5*%
X14600000Y-39100000D03*
X14600000Y-41600000D03*
%TD*%
D24*
%TO.C,*%
X81000000Y-47000000D03*
%TD*%
D22*
%TO.C,J4*%
X70425000Y-31400000D03*
D23*
X70424999Y-33899999D03*
X70424999Y-36399999D03*
%TD*%
D11*
%TO.C,J7*%
X47250000Y-47125000D03*
D12*
X44749999Y-47124999D03*
%TD*%
D21*
%TO.C,D2*%
X28989999Y-13499999D03*
D14*
X36609999Y-13499999D03*
%TD*%
D25*
%TO.C,J1*%
X14049999Y-23549999D03*
D26*
X7749999Y-23549999D03*
D27*
X11149999Y-28349999D03*
%TD*%
D28*
%TO.C,J12*%
X67419999Y-46399999D03*
D29*
X72500000Y-46400000D03*
%TD*%
D13*
%TO.C,R7*%
X26200000Y-31380000D03*
D14*
X36359999Y-31379999D03*
%TD*%
D30*
%TO.C,D1*%
X3999999Y-7099999D03*
D31*
X4000000Y-9640000D03*
%TD*%
D21*
%TO.C,C7*%
X9955111Y-32699999D03*
D13*
X11955112Y-32700000D03*
%TD*%
%TO.C,C4*%
X29080000Y-23800000D03*
X31580000Y-23800000D03*
%TD*%
D18*
%TO.C,U1*%
X34359999Y-44199999D03*
D32*
X17699999Y-41659999D03*
D33*
X17699999Y-44199999D03*
X17699999Y-46739999D03*
%TD*%
D21*
%TO.C,C1*%
X2999999Y-32699999D03*
D13*
X5000000Y-32700000D03*
%TD*%
%TO.C,R2*%
X11300000Y-3700000D03*
D14*
X23999999Y-3699999D03*
%TD*%
D24*
%TO.C,*%
X3000000Y-3000000D03*
%TD*%
D34*
%TO.C,RV1*%
X19860000Y-30900000D03*
X22400000Y-33440000D03*
X19860000Y-35980000D03*
%TD*%
D11*
%TO.C,J9*%
X47250000Y-38025000D03*
D12*
X44749999Y-38024999D03*
%TD*%
D13*
%TO.C,R6*%
X36360000Y-35500000D03*
D14*
X26199999Y-35499999D03*
%TD*%
D24*
%TO.C,*%
X3000000Y-47000000D03*
%TD*%
D35*
%TO.C,J3*%
X11149999Y-18469999D03*
D29*
X11150000Y-23550000D03*
%TD*%
D35*
%TO.C,J2*%
X11149999Y-18469999D03*
D36*
X11149999Y-20969999D03*
%TD*%
D11*
%TO.C,J10*%
X58900000Y-38025000D03*
D12*
X56399999Y-38024999D03*
%TD*%
D28*
%TO.C,J6*%
X80299999Y-22879999D03*
D29*
X80300000Y-17800000D03*
X80300000Y-12720000D03*
%TD*%
D37*
%TO.C,D3*%
X49549999Y-4499999D03*
D38*
X36849999Y-4499999D03*
%TD*%
D39*
%TO.C,SW1*%
X2999999Y-40899999D03*
D17*
X5540000Y-40900000D03*
X8080000Y-40900000D03*
%TD*%
D13*
%TO.C,R1*%
X8500000Y-2920000D03*
D14*
X8499999Y-13079999D03*
%TD*%
D13*
%TO.C,R5*%
X12570000Y-8225000D03*
D14*
X22729999Y-8224999D03*
%TD*%
D24*
%TO.C,*%
X81000000Y-3000000D03*
%TD*%
D40*
%TO.C,Q1*%
X29059999Y-18399999D03*
D41*
X30329999Y-18399999D03*
X31599999Y-18399999D03*
%TD*%
M02*
